<svg width="190.000000" height="98.000000" viewBox="0 0 190 98" fill="none" xmlns="http://www.w3.org/2000/svg" xmlns:xlink="http://www.w3.org/1999/xlink">
	<desc>
			Created with Pixso.
	</desc>
	<defs/>
	<path id="image 5 (Traced)" d="M86.33 0.22C84.18 0.57 80.41 1.78 78.78 2.63L77.72 3.18L80.34 3.33C86.74 3.7 92.49 5.52 97.18 8.66L98.82 9.76L102.82 9.84C106.26 9.91 107.09 10.01 108.82 10.53C109.92 10.87 110.86 11.18 110.9 11.23C110.95 11.27 108.89 11.31 106.33 11.31C103.77 11.31 101.59 11.39 101.49 11.49C101.39 11.59 101.79 12.07 102.37 12.55C104.42 14.24 107.87 17.89 109.53 20.12C112.43 24.02 114.49 28.08 115.51 31.86C115.74 32.72 116 33.51 116.09 33.62C116.18 33.73 116.45 32.86 116.68 31.7C117.23 28.96 117.24 24.52 116.7 21.68C114.7 11.14 106.45 2.7 95.97 0.46C93.61 -0.04 88.69 -0.16 86.33 0.22ZM76.75 4.89C75.65 6.1 73.73 11.42 73.2 14.73C72.83 17.05 72.9 22.28 73.34 24.77C73.87 27.85 75.16 31.5 76.87 34.79C78.57 38.08 79.03 38.64 78.74 37.1C78.27 34.57 78.21 30.55 78.61 27.87C79.85 19.42 84.42 13.66 91.76 11.32C92.49 11.08 93.17 10.81 93.28 10.71C93.59 10.43 90.46 8.33 87.5 6.83C84.43 5.28 81.43 4.46 78.82 4.46C77.51 4.46 77.05 4.55 76.75 4.89ZM72.95 6.48C68.96 9.91 65.91 14.89 64.53 20.26C63.89 22.72 63.66 27.54 64.04 30.17C65.12 37.56 69.08 44.09 75.01 48.26C76.51 49.32 79.69 51.1 80.09 51.1C80.17 51.1 79.77 50.55 79.2 49.87C75.5 45.56 72.36 40.27 70.94 35.95C67.9 26.7 68.91 16.22 73.71 7.16C74.36 5.94 74.86 4.94 74.82 4.94C74.77 4.94 73.94 5.63 72.95 6.48ZM94.41 13.56C92.13 14.29 89.55 15.81 87.83 17.42C85.95 19.2 84.53 21.79 84.03 24.37C83.61 26.58 83.88 30.94 84.64 33.99C85.82 38.76 88.83 45.42 92.09 50.49L93.63 52.9L94.68 52.83C95.26 52.8 96.49 52.56 97.42 52.31C101.74 51.13 105.49 49.01 108.9 45.83L111.06 43.81L110.91 42.22C109.97 32.22 106.66 24.46 100.06 16.75C97.84 14.16 96.67 13.1 96.06 13.13C95.88 13.13 95.14 13.33 94.41 13.56ZM13.72 79.03C9.02 85.52 4 92.45 2.58 94.41L0 97.97L1.66 97.97L3.33 97.97L7.74 91.84L12.15 85.71L17.15 85.71L22.14 85.71L22.21 91.78L22.27 97.85L23.78 97.92L25.28 98L25.22 82.66L25.16 67.32L23.71 67.27L22.27 67.21L13.72 79.03ZM150.53 79.84C150.53 87.93 150.44 92.42 150.3 92.33C150.17 92.25 145.34 86.62 139.56 79.81L129.06 67.44L127.75 67.44L126.44 67.44L126.44 82.59L126.44 97.73L128 97.73L129.57 97.73L129.63 85.19L129.69 72.66L133.46 77.08C135.53 79.51 140.33 85.16 144.13 89.62L151.03 97.73L152.38 97.73L153.73 97.73L153.58 95.03C153.49 93.54 153.42 86.67 153.42 79.76L153.42 67.2L151.97 67.2L150.53 67.2L150.53 79.84ZM157.75 82.47L157.75 97.73L159.32 97.73L160.89 97.73L160.89 91.72L160.89 85.71L165.9 85.71L170.91 85.71L175.23 91.71L179.55 97.7L181.2 97.72C182.1 97.73 182.81 97.64 182.76 97.52C182.72 97.4 177.75 90.54 171.72 82.26L160.77 67.22L159.26 67.21L157.75 67.2L157.75 82.47ZM29.37 82.71L29.37 97.97L38.95 97.96L48.52 97.95L49.37 96.83C49.83 96.21 50.25 95.62 50.29 95.51C50.33 95.41 46.35 95.33 41.44 95.33L32.51 95.33L32.51 81.38L32.51 67.44L30.94 67.44L29.37 67.44L29.37 82.71ZM44.24 68.64C43.75 69.3 43.34 69.89 43.34 69.96C43.34 70.03 46 70.09 49.25 70.09L55.15 70.09L55.15 84.04L55.15 97.99L56.65 97.92L58.16 97.85L58.06 83.97L57.96 70.09L63.13 70.09L68.29 70.09L69.19 68.89C69.68 68.23 70.08 67.64 70.08 67.57C70.08 67.5 64.47 67.44 57.61 67.44L45.13 67.44L44.24 68.64ZM73.26 77.12C73.3 82.44 73.36 89.25 73.4 92.26L73.47 97.73L83.43 97.73L93.4 97.73L94.25 96.59L95.09 95.45L85.72 95.38L76.34 95.32L76.34 89.8L76.34 84.27L84.48 84.27L92.62 84.27L93.51 83.07C94 82.42 94.41 81.82 94.41 81.75C94.41 81.68 90.34 81.63 85.37 81.63L76.34 81.63L76.34 75.86L76.34 70.09L84.6 70.09L92.86 70.09L93.75 68.89C94.25 68.23 94.65 67.64 94.65 67.57C94.65 67.5 89.82 67.44 83.92 67.44L73.2 67.44L73.26 77.12ZM99.22 82.57L99.22 97.73L100.79 97.73L102.36 97.73L102.36 90.98L102.36 84.23L106.27 84.31C110.85 84.41 111.18 84.52 112.85 86.62C113.45 87.38 115.32 90.19 117 92.86L120.06 97.73L121.83 97.73L123.61 97.73L123.25 97.19C123.06 96.89 121.35 94.24 119.46 91.3C117.26 87.86 115.56 85.48 114.72 84.66L113.4 83.38L114.64 83.23C117.39 82.91 119.79 81.16 121.08 78.54C121.65 77.38 121.74 76.89 121.73 75.23C121.72 73.61 121.61 73.06 121.06 71.93C120.25 70.28 118.66 68.84 116.84 68.11C115.54 67.59 115.15 67.57 107.35 67.49L99.22 67.41L99.22 82.57ZM115.97 70.81C117.15 71.4 117.85 71.93 118.32 72.61C119.13 73.78 119.41 75.63 118.97 76.94C118.55 78.23 116.96 79.86 115.25 80.75L113.8 81.51L108.08 81.58L102.36 81.66L102.36 75.73L102.36 69.8L108.32 69.88L114.29 69.97L115.97 70.81ZM164.86 77.34C166.98 80.26 168.75 82.75 168.79 82.86C168.84 82.98 167.08 83.07 164.88 83.07L160.89 83.07L160.88 80.24C160.88 78.69 160.81 76.2 160.73 74.71C160.64 73.15 160.66 72.01 160.79 72.01C160.91 72.02 162.74 74.41 164.86 77.34ZM22.15 77.66L22.15 83.07L18.17 83.07C15.99 83.07 14.2 83 14.2 82.93C14.2 82.75 21.92 72.25 22.05 72.25C22.1 72.25 22.15 74.68 22.15 77.66ZM185.54 92.67C184.67 93.2 184.13 94.5 184.36 95.54C184.45 95.91 184.84 96.53 185.24 96.92C185.84 97.49 186.17 97.61 187.17 97.61C188.26 97.61 188.46 97.52 189.21 96.71C190.41 95.4 190.22 93.59 188.77 92.58C188.04 92.06 186.46 92.11 185.54 92.67ZM188.38 92.94C189.14 93.35 189.57 94.62 189.29 95.63C188.84 97.25 187.05 97.75 185.71 96.63C185.09 96.1 184.97 95.84 184.97 94.93C184.97 94.12 185.11 93.72 185.56 93.27C186.21 92.63 187.51 92.48 188.38 92.94ZM186.18 94.95C186.18 95.84 186.28 96.53 186.42 96.53C186.55 96.53 186.66 96.21 186.66 95.81C186.66 95.41 186.76 95.09 186.88 95.09C187.01 95.09 187.3 95.41 187.54 95.81C187.77 96.21 188.05 96.53 188.15 96.53C188.44 96.53 188.38 96.21 187.99 95.65C187.67 95.19 187.67 95.12 188 94.99C188.24 94.9 188.35 94.62 188.3 94.19C188.23 93.59 188.12 93.52 187.2 93.45L186.18 93.38L186.18 94.95ZM187.78 94.03C187.93 94.42 187.51 94.84 186.96 94.84C186.79 94.85 186.66 94.58 186.66 94.25C186.66 93.8 186.79 93.64 187.15 93.64C187.42 93.64 187.7 93.82 187.78 94.03Z" fill="#888888" fill-opacity="1.000000" fill-rule="evenodd"/>
</svg>
