<svg width="110.000000" height="108.000000" viewBox="0 0 110 108" fill="none" xmlns="http://www.w3.org/2000/svg" xmlns:xlink="http://www.w3.org/1999/xlink">
	<desc>
			Created with Pixso.
	</desc>
	<defs/>
	<path id="image 6 (Traced)" d="M54.29 0.12C54.29 0.2 54.36 0.31 54.44 0.39C54.57 0.51 54.76 0.53 55.88 0.57C56.6 0.6 57.35 0.65 57.57 0.69C57.79 0.73 58.16 0.76 58.41 0.76L58.85 0.77L58.85 0.43L58.85 0.08L58.48 0.04C58.27 0.02 57.25 0 56.2 3.05e-5C54.39 -0.01 54.29 0 54.29 0.12ZM48.11 0.24C48.06 0.3 47.95 0.35 47.88 0.35C47.7 0.35 47.63 0.58 47.75 0.82C47.83 0.98 47.89 1.01 48.06 0.99C48.18 0.98 48.58 0.95 48.95 0.93C49.32 0.92 49.65 0.87 49.69 0.83C49.73 0.8 50.01 0.77 50.31 0.77C50.93 0.77 51.09 0.68 51.09 0.34L51.09 0.14L49.64 0.14C48.47 0.14 48.18 0.16 48.11 0.24ZM45.88 0.58C45.88 0.63 45.99 0.77 46.12 0.9C46.3 1.07 46.42 1.12 46.62 1.12L46.88 1.12L46.88 0.8L46.88 0.49L46.38 0.49C46.02 0.49 45.88 0.51 45.88 0.58ZM41.97 1.37C41.32 1.51 40.7 1.72 39.67 2.15C38.85 2.5 38.02 2.73 36.83 2.95C36.58 3 36.16 3.14 35.91 3.27C35.65 3.4 35.24 3.56 34.98 3.62C34.73 3.68 34.31 3.84 34.05 3.98C33.8 4.11 33.05 4.49 32.38 4.83C29.96 6.04 27.92 7.24 26.01 8.59C25.17 9.19 24.86 9.36 24.69 9.36C24.26 9.36 22.74 10.46 21.26 11.83C20.79 12.27 20.05 12.91 19.62 13.26C19.19 13.61 18.78 14 18.71 14.13C18.61 14.32 18.47 14.43 18.09 14.6C17.64 14.81 17.59 14.85 17.34 15.31C17.19 15.57 16.99 15.84 16.88 15.9C16.77 15.96 16.64 16.14 16.56 16.33C16.49 16.52 16.21 16.89 15.89 17.23C15.59 17.54 15.17 18.08 14.96 18.42C14.51 19.11 14.12 19.45 13.57 19.59L13.22 19.68L12.73 20.67C12.42 21.3 12.08 21.87 11.78 22.25C11.34 22.8 11.09 23.2 10.25 24.65C9.54 25.88 8.21 27.34 7.19 28.03C6.88 28.24 6.71 28.41 6.59 28.65C6.36 29.1 6.08 29.88 5.98 30.36C5.9 30.76 5.89 30.77 5.33 31.13C4.88 31.42 4.72 31.57 4.59 31.83C4.2 32.58 3.52 34.37 3.13 35.67L2.85 36.58L3.13 37.08C3.29 37.36 3.41 37.63 3.41 37.69C3.41 37.86 2.74 38.75 2.46 38.97C2.25 39.12 2.2 39.23 2.13 39.56C2.08 39.79 1.91 40.59 1.73 41.34C1.34 43.1 0.99 44.92 0.67 46.84C-0.11 51.63 -0.18 53.38 0.28 57.68C1.68 70.88 5.68 81.02 12.66 89.1C14.64 91.39 19.2 95.66 22.17 98.03C23.87 99.37 25.84 100.69 27.8 101.77C28.28 102.04 28.83 102.35 29.02 102.47C29.3 102.65 29.44 102.69 29.76 102.69C30.12 102.69 30.17 102.67 30.43 102.41C30.59 102.25 30.78 102.13 30.87 102.13C31.12 102.13 33.07 102.95 33.21 103.11C33.27 103.19 33.35 103.43 33.38 103.66C33.49 104.57 33.75 104.82 35.03 105.23C35.71 105.45 36.1 105.53 36.57 105.56C37.07 105.59 37.21 105.62 37.26 105.72C37.4 105.97 37.88 106.08 39.22 106.14C40.25 106.19 40.7 106.25 41.47 106.42C42.75 106.72 43.16 106.82 43.92 107.02C44.37 107.14 44.76 107.19 45.22 107.2C45.63 107.2 45.96 107.24 46.12 107.31C46.27 107.37 46.78 107.51 47.26 107.63C48.16 107.86 49.61 108 50.98 108C51.72 107.99 52.31 107.82 52.36 107.59C52.43 107.18 52.65 107.18 53.05 107.59C53.35 107.89 53.38 107.91 53.78 107.91C54.17 107.91 54.23 107.88 54.39 107.7C54.48 107.58 54.59 107.36 54.61 107.2L54.66 106.91L54.99 106.95C55.91 107.07 56.14 107.08 56.19 106.96C56.23 106.86 56.44 106.85 57.92 106.85L59.61 106.85L59.92 107.17L60.24 107.49L60.78 107.45C61.37 107.4 62.08 107.39 62.75 107.42C63.09 107.44 63.22 107.42 63.32 107.32C63.43 107.22 63.59 107.2 64.17 107.2C64.84 107.2 64.9 107.19 65.05 107.02C65.2 106.87 65.28 106.85 65.77 106.85C66.35 106.85 67.22 106.66 67.67 106.44C67.82 106.37 68.16 106.29 68.43 106.26C69.02 106.21 69.32 106.05 69.49 105.7C69.62 105.44 69.63 105.44 70.06 105.44C70.42 105.44 70.64 105.38 71.22 105.15C71.61 104.98 72.03 104.76 72.16 104.65C72.5 104.37 72.73 104.27 73.49 104.07C74.16 103.9 74.47 103.78 74.82 103.54C74.91 103.47 75.14 103.4 75.31 103.37C75.49 103.34 75.8 103.23 75.99 103.12C76.5 102.84 77.39 102.46 78.09 102.23C78.42 102.12 78.88 101.91 79.11 101.76C79.55 101.47 80.2 101.16 80.68 101.01C80.82 100.96 80.98 100.86 81.02 100.79C81.1 100.63 81.45 100.44 81.64 100.44C81.71 100.44 81.93 100.28 82.12 100.09C82.39 99.82 82.57 99.7 82.93 99.59C83.71 99.34 84.13 99.12 84.28 98.87C84.45 98.57 84.61 98.45 85.86 97.68C86.43 97.32 87.06 96.91 87.26 96.77C87.46 96.62 87.71 96.48 87.81 96.45C87.91 96.43 88 96.39 88 96.36C88 96.23 88.54 95.79 88.81 95.7C89.17 95.58 89.52 95.15 89.91 94.36C90.13 93.9 90.21 93.8 90.44 93.71C90.59 93.65 90.75 93.61 90.81 93.61C90.86 93.61 91.06 93.39 91.25 93.13C91.65 92.58 91.66 92.56 91.99 92.51C92.2 92.47 92.27 92.41 92.42 92.14C92.82 91.38 93.98 90.49 94.9 90.22C95.17 90.14 95.27 90.04 95.74 89.43C96.3 88.69 96.35 88.53 96.16 88.08C96.06 87.84 96.07 87.83 96.25 87.7C96.53 87.5 97.11 87.22 97.45 87.13C97.63 87.07 97.78 86.97 97.85 86.85C97.92 86.74 98.11 86.52 98.29 86.35C98.59 86.06 98.62 86.01 98.62 85.68C98.62 85.36 98.67 85.24 99.03 84.68C99.42 84.06 99.45 84.04 99.75 83.99C99.99 83.96 100.14 83.87 100.34 83.68L100.61 83.41L100.61 82.73C100.61 82.32 100.65 81.96 100.71 81.82C100.9 81.38 101.37 80.88 101.78 80.68C102 80.58 102.37 80.31 102.6 80.09C102.94 79.76 103.05 79.59 103.24 79.12L103.47 78.54L103.31 78.24C103.23 78.07 103.08 77.83 102.98 77.7L102.8 77.47L102.96 77.03C103.19 76.41 103.5 75.82 103.87 75.31L104.18 74.87L104.81 74.87C105.34 74.87 105.47 74.85 105.62 74.73C105.84 74.56 105.96 74.2 105.96 73.72C105.96 73.54 106 73.27 106.06 73.13C106.12 72.99 106.17 72.67 106.17 72.39C106.17 71.8 106.34 71.42 106.74 71.15C106.89 71.05 107.02 70.92 107.02 70.86C107.03 70.66 107.54 68.55 107.79 67.72C107.93 67.26 108.07 66.7 108.1 66.49C108.13 66.27 108.25 65.83 108.37 65.5C108.68 64.65 108.81 63.82 108.87 62.4C108.91 61.31 108.93 61.15 109.07 60.96C109.67 60.11 109.83 59.4 109.77 57.83C109.73 56.9 109.74 56.6 109.82 56.34C109.9 56.11 109.92 55.74 109.91 54.97C109.9 54.39 109.92 53.63 109.96 53.28C110.04 52.62 109.98 50.93 109.77 48C109.67 46.52 109.62 46.23 109.34 45.34C109.24 45.04 109.15 44.58 109.13 44.32C109.09 43.76 108.61 41.43 108.35 40.56C108.16 39.92 107.6 38.54 107.42 38.26C107.36 38.18 107.31 37.98 107.31 37.82C107.31 37.51 107.23 37.31 107.02 37.08C106.94 37 106.79 36.6 106.67 36.2C106.56 35.79 106.35 35.19 106.22 34.86C105.74 33.68 104.04 30.45 102.71 28.2C101.65 26.4 100.83 24.93 100.35 23.98C99.76 22.81 99.42 22.25 98.99 21.72C98.8 21.49 98.51 21.03 98.34 20.7C97.61 19.3 96.82 18.25 96.22 17.87C95.67 17.53 95.36 17.19 95.01 16.53C94.71 15.95 94.25 15.49 93.76 15.24C93.58 15.15 93.38 15.01 93.32 14.93C93.27 14.85 93.02 14.66 92.77 14.5C92.52 14.34 91.74 13.76 91.04 13.22C89.8 12.26 86.59 10.08 85.91 9.74C85.73 9.65 85.1 9.4 84.53 9.18L83.5 8.8L81.53 8.8L79.57 8.8L78.75 9.23C77.24 10.02 76.68 10.4 75.88 11.19C74.71 12.34 73.32 14.25 73.28 14.78C73.27 14.93 73.22 15.13 73.17 15.21C73.06 15.42 73.04 15.67 72.99 17.2C72.96 18.09 72.98 18.49 73.04 18.6C73.09 18.69 73.14 19.12 73.15 19.55C73.18 20.46 73.35 21.03 73.97 22.32C74.61 23.66 75.15 24.38 75.72 24.67C75.86 24.74 75.96 24.87 76.01 25.05C76.11 25.39 76.49 25.75 76.86 25.88C77.1 25.96 77.15 26.02 77.3 26.41C77.41 26.69 77.58 26.95 77.75 27.12C78.09 27.45 78.96 27.89 79.25 27.89C79.37 27.89 79.77 28.01 80.15 28.16C80.53 28.31 81.08 28.49 81.37 28.56C81.76 28.66 82 28.77 82.23 28.95C82.59 29.25 83.01 29.47 83.35 29.54C83.6 29.59 83.94 29.94 83.94 30.13C83.94 30.2 84.16 30.42 84.45 30.64C84.74 30.85 86.08 32.1 87.43 33.42C89.14 35.1 89.96 35.86 90.14 35.92C90.32 35.98 90.45 36.1 90.6 36.36C90.83 36.73 91.61 37.5 91.83 37.57C91.93 37.6 91.99 37.7 92.02 37.89C92.1 38.4 92.34 38.92 92.74 39.44C93.21 40.06 93.71 40.9 93.88 41.34C93.95 41.52 94.12 41.75 94.25 41.87C94.45 42.05 94.53 42.19 94.64 42.61C94.71 42.9 94.87 43.34 94.98 43.58C95.13 43.9 95.2 44.14 95.2 44.4C95.2 44.85 95.38 45.25 95.73 45.56C95.98 45.78 95.99 45.8 95.98 46.26C95.97 46.89 96.02 47.28 96.13 47.48C96.21 47.62 96.26 47.98 96.36 49.05C96.37 49.17 96.44 49.39 96.52 49.55C96.63 49.78 96.65 49.96 96.64 50.65C96.63 51.23 96.65 51.54 96.72 51.71C96.8 51.9 96.82 52.34 96.79 53.98C96.77 55.17 96.73 56.12 96.68 56.26C96.64 56.39 96.63 56.54 96.65 56.61C96.68 56.67 96.66 56.96 96.63 57.25C96.59 57.55 96.5 58.25 96.44 58.81C96.16 61.37 95.21 65.04 94.15 67.72C92.88 70.9 90.14 75.7 87.82 78.78C85.35 82.07 82.08 85.08 77.7 88.09C73.12 91.24 68.15 93.63 63.77 94.8C60.05 95.79 55.4 96.24 51.12 96.01C46.59 95.76 43.87 95.31 41.56 94.42C41.04 94.22 40.63 94.1 40.43 94.1C40.24 94.1 40.01 94.03 39.82 93.93C39.65 93.83 39.18 93.67 38.79 93.57C36.85 93.07 35.12 92.35 33.28 91.25C32.86 91.01 32.36 90.75 32.16 90.69C31.93 90.62 31.76 90.51 31.71 90.41C31.6 90.21 31.27 90.01 31.05 90.01C30.77 90.01 27.95 87.96 25.86 86.24C22.73 83.67 20.64 81.36 18.5 78.11C16.74 75.43 15.46 72.94 14.04 69.43C12.76 66.26 12.04 63.53 11.54 59.97C11.15 57.16 11.15 56.34 11.61 50.25C11.8 47.75 12.09 46.14 12.85 43.45C14.41 37.96 18.12 30.94 21.61 26.91C23.74 24.43 26.02 22.59 29.59 20.43C31.46 19.3 33.11 18.09 34.61 16.74C35.09 16.31 35.56 15.89 35.65 15.82C35.93 15.6 41.1 13.85 44.74 12.75C46.85 12.12 48.71 11.73 50.52 11.54C50.97 11.49 51.37 11.43 51.4 11.4C51.51 11.3 52.9 11.33 53.76 11.44C54.19 11.5 54.88 11.55 55.29 11.55C55.7 11.55 56.18 11.58 56.36 11.62C56.54 11.66 56.93 11.7 57.24 11.72C57.56 11.74 57.86 11.8 57.91 11.85C58.02 11.93 58.21 11.93 60.43 11.88C60.85 11.87 61.01 11.89 61.11 11.98C61.18 12.04 61.36 12.13 61.51 12.18C61.65 12.22 61.81 12.32 61.85 12.4C61.91 12.52 62.01 12.53 62.66 12.53C63.07 12.53 63.56 12.5 63.76 12.45C64.19 12.35 64.33 12.39 64.87 12.71C65.24 12.93 65.33 12.95 65.81 12.95C66.09 12.95 66.35 12.92 66.37 12.88C66.44 12.77 66.8 12.81 66.93 12.94C66.99 13.01 67.08 13.16 67.12 13.28C67.17 13.4 67.34 13.57 67.56 13.71C67.85 13.9 67.99 13.94 68.29 13.94C68.68 13.94 68.82 13.86 68.86 13.61C68.87 13.54 69.05 13.39 69.26 13.27L69.65 13.06L69.67 12.65C69.69 12.31 69.67 12.24 69.56 12.21C69.49 12.19 69.32 12.11 69.17 12.04C68.85 11.87 68.53 11.86 68.29 12.01C68.13 12.12 68.11 12.12 67.87 11.91C67.54 11.62 67.13 11.42 66.78 11.36C66.55 11.33 66.42 11.23 65.99 10.76C65.55 10.3 65.43 10.21 65.25 10.21C65.08 10.21 64.96 10.13 64.74 9.91C64.31 9.46 64.27 9.44 63.64 9.33C63.33 9.28 62.86 9.13 62.59 9.02C62.04 8.77 61.72 8.75 60.98 8.91C60.57 9 60.42 9.01 60.13 8.94C59.7 8.84 59.01 8.4 58.75 8.08C58.59 7.87 58.51 7.83 58.2 7.8C57.97 7.77 57.79 7.71 57.7 7.62C57.51 7.43 57.58 7.2 57.85 7.14C57.96 7.12 58.11 7.04 58.18 6.96C58.35 6.78 58.27 6.65 57.84 6.37C57.57 6.2 57.5 6.11 57.47 5.91C57.38 5.38 57.08 4.81 56.61 4.25L56.37 3.97L55.39 3.92C52.98 3.79 52.56 3.79 51.95 3.88C51.38 3.96 51.02 3.98 50.23 3.94C49.93 3.93 49.22 3.98 47.63 4.14C47.2 4.18 46.89 4.25 46.7 4.35C46.52 4.45 46.29 4.5 46.07 4.5C45.64 4.5 44.83 4.63 44.64 4.74C44.56 4.78 44.33 4.84 44.14 4.87C43.94 4.9 43.59 4.95 43.35 4.98C43.11 5.02 42.83 5.1 42.71 5.15C42.43 5.29 41.83 5.42 41.42 5.42C41.21 5.42 40.96 5.49 40.67 5.63C40.44 5.75 39.92 5.96 39.52 6.09C38.84 6.31 38.75 6.32 38.15 6.29C37.52 6.25 37.5 6.25 37.03 6.5C36.75 6.65 36.44 6.76 36.31 6.76C36.14 6.76 36.02 6.82 35.87 6.97C35.75 7.1 35.46 7.34 35.21 7.51C34.85 7.77 34.68 7.84 34.3 7.89C34.02 7.93 33.74 8.02 33.57 8.13C33.43 8.22 33.19 8.34 33.06 8.39C32.92 8.43 32.7 8.57 32.57 8.7C32.33 8.95 32.15 8.99 31.9 8.86C31.76 8.79 31.76 8.78 31.96 8.57C32.22 8.3 33.04 7.75 33.6 7.47C33.84 7.35 34.1 7.18 34.17 7.09C34.24 7 34.41 6.88 34.54 6.83C34.67 6.78 34.9 6.65 35.05 6.54C35.21 6.42 35.4 6.33 35.47 6.33C35.71 6.33 36.04 5.99 36.31 5.45L36.56 4.94L37.05 4.78C37.57 4.62 37.65 4.62 38.51 4.82C38.78 4.89 39.23 4.94 39.51 4.95L40 4.96L40.03 4.41C40.05 3.74 40.15 3.65 40.81 3.66C41.3 3.68 41.39 3.64 41.39 3.42C41.39 3.19 41.24 3.08 40.86 3.04C40.56 3.01 40.52 3.02 40.29 3.26C40.16 3.4 40 3.52 39.94 3.52C39.81 3.52 39.26 3.31 39.26 3.26C39.26 3.24 39.36 3.13 39.48 3.02C39.64 2.86 39.77 2.81 39.98 2.81C40.29 2.81 40.72 2.62 40.92 2.4C41.03 2.28 41.14 2.25 41.47 2.25C41.7 2.25 41.9 2.22 41.93 2.18C41.95 2.14 42.04 2.11 42.13 2.11C42.22 2.11 42.41 2.04 42.55 1.97C42.7 1.89 42.93 1.83 43.06 1.83C43.42 1.83 43.7 1.48 43.44 1.38C43.18 1.28 42.39 1.28 41.97 1.37ZM46.24 1.59C45.82 1.7 45.59 1.86 45.64 2C45.7 2.14 46.15 2.32 46.46 2.32L46.74 2.32L46.74 1.9C46.74 1.66 46.71 1.48 46.68 1.48C46.66 1.48 46.46 1.53 46.24 1.59ZM61.22 5.56C61.09 5.61 61.06 5.68 61.06 5.94C61.06 6.22 61.09 6.27 61.26 6.36C61.64 6.56 62.02 6.62 62.58 6.57C63.08 6.53 63.13 6.51 63.13 6.37C63.13 6.19 62.86 5.98 62.25 5.7C61.8 5.49 61.51 5.45 61.22 5.56ZM58.69 6.48C58.61 6.57 58.57 6.73 58.57 6.93L58.57 7.25L58.98 7.25C59.4 7.25 59.4 7.25 59.95 7.74C60.37 8.13 60.54 8.24 60.71 8.24C60.89 8.24 60.94 8.19 61.03 7.99C61.13 7.75 61.17 7.13 61.09 6.85C61.01 6.57 60.23 6.33 59.39 6.34C58.92 6.34 58.79 6.37 58.69 6.48ZM61.42 7.49C61.42 7.88 61.44 7.96 61.58 8.06C61.81 8.22 62.12 8.19 62.39 7.99C62.59 7.84 62.63 7.76 62.63 7.54C62.63 7.15 62.47 7.04 61.89 7.04L61.42 7.04L61.42 7.49ZM64.08 7.78C64.01 7.95 64.19 8.53 64.38 8.78C64.48 8.91 64.69 9.05 64.89 9.12C65.08 9.18 65.4 9.32 65.61 9.41C66.03 9.61 66.35 9.6 66.66 9.4C66.8 9.31 66.83 9.23 66.83 9.01C66.83 8.7 66.69 8.52 66.45 8.52C66.06 8.52 65.09 8.08 64.85 7.79C64.72 7.63 64.14 7.63 64.08 7.78ZM45.2 8.91C45.31 9.19 45.24 9.33 44.85 9.63C44.54 9.86 44.4 9.93 44.18 9.93C43.69 9.93 43.46 9.41 43.82 9.14C44.24 8.83 45.11 8.68 45.2 8.91ZM31.59 9.77C31.42 10.19 31.07 10.37 30.29 10.47C29.96 10.5 29.94 10.5 29.72 10.24C29.48 9.95 29.43 9.79 29.59 9.79C29.65 9.79 29.77 9.72 29.86 9.65C30.01 9.53 30.14 9.51 30.87 9.51L31.7 9.5L31.59 9.77ZM70.8 12.65C70.71 12.74 70.75 13.28 70.86 13.43C70.96 13.56 71.04 13.59 71.4 13.59L71.82 13.59L71.82 13.24C71.82 12.95 71.79 12.87 71.63 12.75C71.45 12.61 70.91 12.54 70.8 12.65ZM67.87 38.53C67.08 38.61 66.5 38.78 65.73 39.15C64.46 39.77 63.53 40.69 62.91 41.94C62.38 43.02 62.31 43.36 62.31 44.72C62.32 45.8 62.33 45.93 62.52 46.48C62.88 47.56 63.36 48.34 64.1 49.06C65.24 50.17 66.58 50.75 68.19 50.83C69.5 50.89 70.62 50.62 71.78 49.95C72.34 49.62 73.32 48.69 73.72 48.09C75 46.19 75.09 43.63 73.95 41.62C72.77 39.54 70.29 38.28 67.87 38.53ZM44.67 44.62L44.67 50.64L47.17 50.64L49.66 50.64L49.66 49.76L49.66 48.88L48.13 48.88L46.6 48.88L46.6 43.74L46.6 38.59L45.63 38.59L44.67 38.59L44.67 44.62ZM36.88 38.72C36.7 39.01 31.78 50.54 31.83 50.58C31.9 50.64 33.75 50.68 33.82 50.62C33.84 50.59 34.16 49.85 34.52 48.96L35.16 47.36L37.31 47.35L39.45 47.33L40.14 48.95L40.84 50.57L41.87 50.57C42.43 50.57 42.89 50.56 42.89 50.54C42.89 50.53 41.77 47.86 40.4 44.61L37.92 38.7L37.42 38.68C37.14 38.67 36.9 38.69 36.88 38.72ZM51.58 44.69L51.58 50.71L53.24 50.71C55.18 50.71 55.99 50.61 56.92 50.27C57.83 49.93 58.3 49.63 58.99 48.95C59.89 48.07 60.31 47.28 60.58 45.99C60.84 44.75 60.68 43.09 60.2 42.01C59.68 40.84 58.67 39.83 57.46 39.29C56.42 38.82 55.32 38.67 53.1 38.67L51.58 38.66L51.58 44.69ZM69.53 40.46C70.26 40.63 70.93 41.02 71.54 41.62C72.39 42.45 72.82 43.46 72.82 44.61C72.82 45.79 72.41 46.76 71.54 47.61C70.66 48.48 69.71 48.88 68.51 48.88C67.29 48.88 66.35 48.48 65.44 47.58C64.56 46.71 64.2 45.84 64.2 44.62C64.2 43.88 64.32 43.33 64.63 42.71C65.16 41.65 66.3 40.74 67.46 40.46C68.01 40.33 68.98 40.33 69.53 40.46ZM55.46 40.6C56.55 40.79 57.53 41.4 58.09 42.23C58.61 43 58.74 43.47 58.74 44.51C58.75 45.59 58.58 46.17 58.05 46.95C57.19 48.22 55.86 48.87 54.1 48.88L53.51 48.88L53.51 44.69L53.51 40.5L54.2 40.5C54.59 40.5 55.15 40.55 55.46 40.6ZM38.06 43.86C38.44 44.78 38.74 45.54 38.73 45.55C38.72 45.56 38.08 45.56 37.31 45.55L35.92 45.53L36.61 43.86C36.99 42.94 37.31 42.19 37.33 42.19C37.35 42.19 37.68 42.94 38.06 43.86ZM21.33 54.34C18.87 54.87 17.07 56.62 16.48 59.06C16.3 59.79 16.31 61.07 16.51 61.85C17.05 64.03 18.72 65.73 20.92 66.36C21.66 66.57 23.35 66.59 24.08 66.39C24.52 66.27 25.98 65.61 26.23 65.41C26.35 65.32 26.36 65.18 26.34 63.99L26.32 62.67L26.07 63C25.59 63.64 24.62 64.25 23.72 64.47C23.13 64.61 22.04 64.62 21.51 64.48C19.42 63.93 17.98 61.84 18.3 59.8C18.53 58.35 19.33 57.2 20.56 56.58C21.35 56.18 21.7 56.1 22.62 56.1C23.28 56.11 23.48 56.13 23.88 56.29C24.61 56.56 25.11 56.89 25.77 57.5L26.36 58.05L26.32 57.64C26.3 57.41 26.27 56.82 26.24 56.32L26.2 55.42L25.78 55.15C25.22 54.79 24.45 54.48 23.78 54.34C23.12 54.21 21.93 54.21 21.33 54.34ZM32.91 54.34C30.9 54.73 29.09 56.23 28.35 58.12C27.73 59.71 27.79 61.51 28.52 63.07C29.14 64.37 30.41 65.57 31.76 66.11C32.65 66.46 33.02 66.52 34.23 66.52C35.28 66.51 35.42 66.5 35.98 66.32C38.04 65.65 39.46 64.24 40.15 62.19C40.34 61.63 40.35 61.51 40.36 60.43C40.36 59.09 40.29 58.75 39.79 57.72C38.92 55.93 37.31 54.71 35.35 54.33C34.71 54.21 33.54 54.21 32.91 54.34ZM64.24 54.34C63.06 54.6 62.12 55.1 61.26 55.91C60.6 56.53 60.23 57.05 59.85 57.85C59.43 58.74 59.32 59.32 59.32 60.43C59.32 61.55 59.44 62.06 59.88 63.01C60.26 63.81 60.6 64.26 61.29 64.91C62.55 66.1 64.04 66.62 65.89 66.54C68.95 66.4 71.38 64.13 71.75 61.05C71.89 59.89 71.68 58.79 71.11 57.65C70.34 56.09 69.07 55.03 67.33 54.48C66.82 54.31 66.58 54.28 65.73 54.26C65.01 54.24 64.59 54.27 64.24 54.34ZM42.39 60.39L42.39 66.35L43.39 66.35L44.39 66.35L44.39 63.93L44.39 61.51L45.18 61.46C46.51 61.38 47.21 61.13 47.92 60.48C48.72 59.75 49.06 58.86 49 57.61C48.95 56.45 48.55 55.67 47.72 55.11C46.93 54.57 46.19 54.44 43.95 54.44L42.39 54.44L42.39 60.39ZM51.23 60.39L51.23 66.35L52.23 66.35L53.22 66.35L53.22 63.93L53.22 61.51L53.99 61.46C55.41 61.38 56.24 61.05 56.95 60.29C57.56 59.64 57.85 58.83 57.85 57.82C57.86 56.16 57.02 55.05 55.45 54.61C55.14 54.52 54.6 54.49 53.13 54.46L51.23 54.43L51.23 60.39ZM73.82 60.39L73.82 66.35L76.35 66.35L78.88 66.35L78.88 65.47L78.88 64.59L77.31 64.59L75.74 64.59L75.74 59.51L75.74 54.44L74.78 54.44L73.82 54.44L73.82 60.39ZM85.04 54.52C85.01 54.56 83.84 57.22 82.43 60.42L79.88 66.24L80.32 66.29C80.57 66.31 81.04 66.33 81.37 66.34L81.98 66.34L82.63 64.74L83.28 63.14L85.48 63.13L87.68 63.11L88.36 64.67L89.04 66.24L90.09 66.26C90.66 66.27 91.13 66.27 91.13 66.26C91.13 66.25 90 63.59 88.61 60.36L86.09 54.48L85.59 54.46C85.27 54.44 85.07 54.47 85.04 54.52ZM35.57 56.29C36.27 56.55 36.79 56.88 37.29 57.4C37.8 57.94 38.21 58.67 38.37 59.35C38.53 60.01 38.48 61.14 38.26 61.75C37.84 62.92 36.79 63.96 35.6 64.38C34.98 64.59 33.76 64.65 33.13 64.49C31.9 64.17 30.93 63.41 30.31 62.26C29.95 61.57 29.83 60.97 29.87 60.11C29.93 58.97 30.3 58.14 31.13 57.33C31.68 56.78 32.34 56.4 33.06 56.2C33.8 56.01 34.89 56.05 35.57 56.29ZM66.84 56.26C68.19 56.73 69.21 57.7 69.61 58.91C70.16 60.53 69.76 62.18 68.54 63.39C67.73 64.19 66.74 64.59 65.56 64.59C64.29 64.59 63.36 64.2 62.48 63.33C61.87 62.71 61.55 62.16 61.35 61.37C60.92 59.72 61.56 57.94 62.94 56.93C63.51 56.51 63.82 56.36 64.44 56.2C65.09 56.02 66.24 56.05 66.84 56.26ZM45.98 56.37C46.49 56.49 46.72 56.65 46.94 57.03C47.27 57.62 47.2 58.53 46.79 59C46.41 59.42 46.09 59.53 45.19 59.57L44.39 59.6L44.39 57.94L44.39 56.27L44.97 56.28C45.3 56.28 45.75 56.32 45.98 56.37ZM54.7 56.35C54.94 56.39 55.25 56.5 55.38 56.58C56.06 57.04 56.2 58.3 55.63 58.98C55.27 59.41 54.94 59.53 54.02 59.57L53.22 59.6L53.22 57.94L53.22 56.27L53.73 56.27C54.02 56.27 54.45 56.31 54.7 56.35ZM86.23 59.6C86.62 60.5 86.93 61.26 86.93 61.29C86.93 61.32 86.29 61.35 85.5 61.35C84.72 61.35 84.08 61.32 84.08 61.3C84.08 61.2 85.46 57.96 85.5 57.97C85.52 57.97 85.85 58.7 86.23 59.6ZM104.35 65.97C104.41 66.22 104.32 66.99 104.2 67.15C104.15 67.23 104.1 67.44 104.1 67.62C104.1 67.86 103.98 68.23 103.56 69.17C103.26 69.84 102.6 71.41 102.1 72.65C101.17 74.92 100.38 76.52 99.09 78.72C98.79 79.23 98.48 79.8 98.39 79.98C98.27 80.22 98.18 80.31 98.03 80.34C97.88 80.37 97.71 80.58 97.18 81.38C96.81 81.92 96.28 82.64 95.99 82.98C95.7 83.31 95.15 84.01 94.77 84.53C94.39 85.05 93.95 85.57 93.79 85.68C93.56 85.85 93.51 85.93 93.54 86.05C93.56 86.18 93.41 86.36 92.69 87.03C92.21 87.49 91.15 88.5 90.35 89.27C89.54 90.05 88.29 91.16 87.57 91.74C86.27 92.77 84.8 94 83.93 94.77C83.69 94.98 83.46 95.16 83.41 95.16C83.16 95.16 82.39 95.62 82 96C81.63 96.37 81.48 96.46 80.84 96.71C80.43 96.87 79.82 97.17 79.47 97.39C79.12 97.61 78.77 97.78 78.69 97.77C78.6 97.77 78.49 97.83 78.42 97.94C78.25 98.19 77.98 98.35 77.6 98.4C77.01 98.5 76.58 98.7 76.19 99.08C75.92 99.33 75.73 99.45 75.55 99.48C75.41 99.5 75.24 99.57 75.17 99.63C75.11 99.69 74.86 99.78 74.63 99.84C74.4 99.9 74.01 100.05 73.76 100.16C73.23 100.4 73.1 100.42 73.1 100.23C73.1 100.15 73.23 100.03 73.44 99.91C73.63 99.8 73.89 99.63 74.03 99.52C74.17 99.41 74.49 99.28 74.74 99.21C75.24 99.09 75.58 98.9 77.1 97.96C77.62 97.63 78.79 96.94 79.69 96.43C81.56 95.36 82.81 94.56 84.07 93.63C84.55 93.27 85.09 92.91 85.26 92.84C85.77 92.61 86.21 92.28 87 91.53C87.41 91.14 88.01 90.6 88.32 90.33C88.63 90.06 89.37 89.38 89.96 88.82C90.55 88.25 91.37 87.48 91.78 87.09C92.35 86.55 92.59 86.27 92.79 85.89C92.98 85.55 93.15 85.33 93.38 85.17C93.56 85.04 93.83 84.77 94 84.57C94.27 84.23 94.7 83.45 94.7 83.29C94.7 83.25 94.84 83.13 95.02 83.02C95.44 82.75 95.59 82.57 96.2 81.55C96.48 81.07 97.06 80.16 97.48 79.52C97.9 78.88 98.47 77.98 98.75 77.51C99.04 77.05 99.37 76.57 99.5 76.46C99.78 76.2 99.98 75.83 100.15 75.26C100.21 75.02 100.41 74.59 100.58 74.3C100.96 73.66 101.38 72.71 101.62 71.98C101.71 71.69 101.89 71.28 102.02 71.07C102.47 70.34 102.91 69.36 103.04 68.79C103.24 67.94 103.89 66.12 104.06 65.94C104.24 65.74 104.29 65.74 104.35 65.97ZM72.42 100.39C72.31 100.53 72.1 100.69 71.96 100.76C71.63 100.92 70.84 101.14 70.59 101.14L70.39 101.14L70.59 100.9C70.85 100.58 71.84 100.19 72.45 100.16L72.62 100.16L72.42 100.39Z" fill="#888888" fill-opacity="1.000000" fill-rule="evenodd"/>
</svg>
