<svg width="69.000000" height="108.000000" viewBox="0 0 69 108" fill="none" xmlns="http://www.w3.org/2000/svg" xmlns:xlink="http://www.w3.org/1999/xlink">
	<desc>
			Created with Pixso.
	</desc>
	<defs/>
	<path id="image 3 (Traced)" d="M0 36.79C0 72.1 0.01 73.69 0.32 76.41C0.5 77.97 0.73 79.66 0.84 80.17C1.81 84.77 3.76 88.19 6.8 90.6C9.56 92.79 14.01 94.21 18.97 94.47L21.07 94.58L21.03 83.07C21 76.74 21 68.6 21.03 64.97L21.07 58.38L23.49 61.05C26.91 64.82 26.98 64.9 28.37 66.47C29.07 67.25 29.67 67.93 29.72 67.97C29.8 68.05 35.59 74.53 37.02 76.14C37.3 76.45 37.6 76.79 37.69 76.89C37.79 76.99 39.11 78.47 40.63 80.17C42.15 81.87 43.57 83.44 43.79 83.67C44 83.9 45.02 85.05 46.06 86.22L47.94 88.34L58.06 88.35C67.01 88.35 68.73 88.29 68.05 87.99C67.98 87.96 67.36 87.29 66.66 86.51C65.97 85.73 65.33 85.01 65.24 84.91C65.14 84.81 64.6 84.21 64.04 83.57C57.13 75.84 53.6 71.9 52.98 71.21C52.88 71.11 52.35 70.51 51.8 69.88C50.72 68.64 49.74 67.56 48.51 66.22C47.84 65.5 47.11 64.68 44.58 61.81C44.3 61.49 43.64 60.77 43.11 60.21C42.59 59.64 42 58.99 41.82 58.76C41.5 58.34 41.5 58.34 41.86 57.94C42.06 57.71 42.8 56.89 43.49 56.11C44.18 55.33 44.82 54.62 44.92 54.52C45.05 54.37 46.77 52.45 47.43 51.7C47.72 51.39 50.45 48.36 50.62 48.17C50.72 48.07 51.28 47.43 51.88 46.76C52.49 46.09 53.05 45.46 53.14 45.36C53.24 45.26 53.57 44.87 53.88 44.51C54.2 44.14 55.07 43.16 55.83 42.34C56.59 41.51 57.5 40.49 57.86 40.08C58.22 39.67 58.56 39.29 58.61 39.25C58.66 39.2 59.94 37.77 61.46 36.07C62.97 34.37 64.26 32.94 64.31 32.9C64.36 32.85 64.96 32.18 65.65 31.4C66.34 30.61 67.19 29.68 67.54 29.31C67.89 28.94 68.17 28.58 68.17 28.51C68.17 28.45 63.62 28.39 58.05 28.39L47.93 28.39L47.4 29.02C46.68 29.86 46.1 30.52 45.36 31.31C45.02 31.68 43.23 33.67 41.39 35.74C39.54 37.8 37.99 39.53 37.95 39.58C37.9 39.63 36.35 41.35 34.51 43.42C32.66 45.49 31.11 47.22 31.06 47.26C31.01 47.31 30.04 48.4 28.89 49.68C27.75 50.97 26.46 52.4 26.04 52.86C25.61 53.32 24.7 54.33 24.01 55.11C23.32 55.89 22.61 56.68 22.44 56.86C22.27 57.05 21.94 57.44 21.7 57.74C21.47 58.04 21.21 58.29 21.13 58.29C21.05 58.29 21 46.08 21.03 29.14L21.07 0L10.53 0L0 0L0 36.79ZM0.7 101.01C0.54 101.12 0.5 101.93 0.54 104.48L0.58 107.81L1.17 107.81L1.76 107.81L1.81 106.64C1.86 105.57 2.13 104.89 2.51 104.89C2.57 104.89 3.1 105.56 3.67 106.39L4.72 107.89L5.56 107.89C6.53 107.89 6.59 108.07 4.9 105.82C4.22 104.91 3.63 104.08 3.59 103.98C3.55 103.88 4.09 103.21 4.78 102.49C5.47 101.76 5.99 101.1 5.93 101.01C5.88 100.91 5.51 100.87 5.13 100.92C4.54 100.98 4.28 101.15 3.43 102.05C2.88 102.62 2.32 103.21 2.18 103.35C1.95 103.58 1.92 103.47 1.84 102.29C1.76 101.02 1.74 100.96 1.34 100.92C1.11 100.89 0.82 100.94 0.7 101.01ZM7.16 100.98C7.1 101.05 7.05 102.63 7.05 104.5L7.05 107.9L9.52 107.86L12 107.81L12 107.22L12 106.64L10.11 106.59L8.22 106.55L8.22 105.72L8.22 104.89L9.82 104.89L11.41 104.89L11.41 104.31L11.41 103.73L9.86 103.68L8.31 103.63L8.31 102.97L8.31 102.3L10.12 102.25L11.94 102.2L11.89 101.58L11.83 100.96L9.56 100.91C8.31 100.89 7.23 100.92 7.16 100.98ZM12.83 101.09C12.79 101.21 13.23 102.77 13.81 104.56L14.88 107.81L15.59 107.81L16.31 107.81L17.03 105.64C18.16 102.21 18.47 101.24 18.47 101.05C18.47 100.96 18.18 100.88 17.83 100.88C17.1 100.88 17.21 100.66 16.18 104.26C15.93 105.16 15.66 105.89 15.58 105.89C15.51 105.89 15.4 105.68 15.35 105.43C15.06 104.18 14.04 101.11 13.87 101.01C13.56 100.81 12.92 100.86 12.83 101.09ZM19.34 101.01C19.18 101.12 19.14 101.93 19.18 104.48L19.22 107.81L19.81 107.81L20.4 107.81L20.4 104.39L20.4 100.96L19.98 100.92C19.75 100.89 19.46 100.94 19.34 101.01ZM21.7 101.02C21.53 101.12 21.49 101.93 21.53 104.48L21.57 107.81L22.16 107.81L22.75 107.81L22.83 105.47L22.92 103.13L23.57 104.3C23.93 104.94 24.54 106 24.93 106.64C25.63 107.81 25.63 107.81 26.37 107.81L27.12 107.81L27.16 104.42C27.21 100.74 27.2 100.71 26.28 100.95C25.87 101.05 25.87 101.06 25.82 103.34L25.77 105.64L25.33 104.89C25.09 104.47 24.68 103.76 24.43 103.3C23.58 101.76 23.29 101.3 23.03 101.09C22.74 100.85 22.02 100.81 21.7 101.02ZM30.46 101.09C30.42 101.21 30.4 102.77 30.43 104.56L30.47 107.81L31.1 107.86L31.73 107.91L31.73 105.61C31.73 103.18 31.86 102.96 32.29 104.64C32.43 105.19 32.69 106.13 32.86 106.72L33.16 107.81L33.85 107.86C34.4 107.9 34.56 107.85 34.63 107.61C34.68 107.44 34.95 106.45 35.24 105.41C35.52 104.36 35.79 103.47 35.84 103.42C35.89 103.37 35.93 104.35 35.93 105.61L35.93 107.89L36.6 107.89L37.27 107.89L37.27 104.49C37.27 100.74 37.31 100.87 36.21 100.88C35.45 100.88 35.25 101.07 35 101.98C34.88 102.43 34.62 103.4 34.42 104.13C34.03 105.58 33.83 105.93 33.69 105.45C32.98 103.03 32.57 101.53 32.57 101.33C32.57 101 32.21 100.88 31.29 100.88C30.84 100.88 30.51 100.96 30.46 101.09ZM38.49 100.99C38.22 101.1 38.2 105.09 38.47 106.15C38.94 108.01 41.43 108.63 42.83 107.24C43.48 106.59 43.65 105.77 43.66 103.26L43.66 101.05L43.24 100.95C42.36 100.73 42.31 100.84 42.31 103.34C42.31 105.87 42.18 106.35 41.42 106.6C40.81 106.81 39.99 106.47 39.78 105.93C39.7 105.71 39.63 104.53 39.63 103.31C39.63 101.43 39.58 101.06 39.36 100.98C39.06 100.86 38.8 100.87 38.49 100.99ZM44.74 101.09C44.69 101.21 44.68 102.77 44.7 104.56L44.75 107.81L45.34 107.81L45.92 107.81L46.01 106.51C46.05 105.8 46.15 105.22 46.22 105.22C46.29 105.22 46.74 105.22 47.22 105.22C48.47 105.23 48.6 105.35 48.69 106.68L48.78 107.81L49.43 107.86L50.08 107.92L50 106.57C49.95 105.62 49.84 105.13 49.64 104.91C49.36 104.6 49.37 104.57 49.78 104.13C50.69 103.14 50.09 101.46 48.69 101.1C47.62 100.82 44.84 100.82 44.74 101.09ZM51.32 100.99C51.26 101.05 51.21 102.63 51.21 104.5L51.21 107.89L51.79 107.89L52.37 107.89L52.42 106.68L52.47 105.47L53.66 105.39C55.59 105.25 56.35 104.53 56.21 102.95C56.08 101.37 55.27 100.9 52.63 100.88C51.97 100.88 51.39 100.93 51.32 100.99ZM57.17 101.09C57.12 101.21 57.1 102.77 57.13 104.56L57.17 107.81L57.76 107.81L58.35 107.81L58.4 106.35L58.45 104.89L59.86 104.89L61.28 104.89L61.32 106.35L61.37 107.81L61.96 107.81L62.55 107.81L62.59 104.43L62.64 101.05L62.22 100.95C61.4 100.74 61.29 100.92 61.29 102.38L61.29 103.72L59.86 103.72L58.43 103.72L58.43 102.4C58.43 101.35 58.38 101.06 58.17 100.98C57.73 100.81 57.25 100.86 57.17 101.09ZM63.23 101.02C63.19 101.09 63.63 101.96 64.2 102.97C65.21 104.76 65.23 104.84 65.32 106.31L65.4 107.81L65.99 107.81L66.58 107.81L66.66 106.39C66.73 105.21 66.82 104.85 67.21 104.26C67.46 103.87 67.67 103.52 67.67 103.46C67.67 103.41 67.97 102.85 68.33 102.21L69 101.05L68.58 100.94C67.76 100.74 67.45 100.98 66.77 102.38C66.41 103.12 66.06 103.72 66 103.72C65.93 103.72 65.65 103.21 65.36 102.59C65.07 101.97 64.76 101.36 64.68 101.23C64.51 100.99 63.36 100.82 63.23 101.02ZM48.6 102.48C48.92 102.8 48.94 103.22 48.63 103.64C48.45 103.88 48.13 103.97 47.2 104.02L46.01 104.09L46.01 103.15L46.01 102.21L47.17 102.21C48 102.21 48.41 102.29 48.6 102.48ZM54.58 102.39C54.8 102.5 54.91 102.73 54.9 103.1C54.9 103.98 54.71 104.13 53.53 104.13L52.47 104.13L52.42 103.41C52.39 103 52.41 102.57 52.46 102.45C52.56 102.17 54.09 102.12 54.58 102.39ZM28.21 107.15L28.21 107.91L28.84 107.86C29.45 107.81 29.47 107.79 29.52 107.1L29.57 106.39L28.89 106.39L28.21 106.39L28.21 107.15Z" fill="#888888" fill-opacity="1.000000" fill-rule="evenodd"/>
</svg>
