<svg width="40.000000" height="39.000000" viewBox="0 0 40 39" fill="none" xmlns="http://www.w3.org/2000/svg" xmlns:xlink="http://www.w3.org/1999/xlink">
	<desc>
			Created with Pixso.
	</desc>
	<defs/>
	<path id="Vector" d="M39.19 33.59L34.95 33.59C37.76 29.86 39.31 25.2 39.31 20.46C39.31 8.99 30.65 -0.34 19.99 -0.34C9.34 -0.34 0.68 8.99 0.68 20.46C0.68 25.2 2.23 29.86 5.04 33.59L0.8 33.59C0.36 33.59 0 33.96 0 34.4L0 37.52C0 37.97 0.36 38.33 0.8 38.33L12.36 38.33C12.81 38.33 13.17 37.97 13.17 37.52L13.17 34.05C13.17 33.85 13.1 33.67 12.98 33.52L12.93 33.47C12.89 33.42 12.84 33.37 12.78 33.33C8.8 30.57 6.33 25.64 6.33 20.46C6.33 12.11 12.46 5.31 19.99 5.31C27.53 5.31 33.66 12.11 33.66 20.46C33.66 25.66 31.17 30.6 27.17 33.35C26.95 33.51 26.82 33.76 26.82 34.02L26.82 37.52C26.82 37.97 27.18 38.33 27.63 38.33L39.19 38.33C39.63 38.33 40 37.97 40 37.52L40 34.4C40 33.96 39.63 33.59 39.19 33.59Z" fill="#FFFFFF" fill-opacity="1.000000" fill-rule="nonzero"/>
</svg>
