<svg width="90.000000" height="120.000000" viewBox="0 0 90 120" fill="none" xmlns="http://www.w3.org/2000/svg" xmlns:xlink="http://www.w3.org/1999/xlink">
	<desc>
			Created with Pixso.
	</desc>
	<defs/>
	<path id="image 4 (Traced)" d="M38.46 0.47C14.92 3.92 -2.27 25.62 0.24 48.74C1.37 59.23 5.14 67.33 12.39 74.87C18.79 81.52 26.72 86.04 35.43 87.99C40.16 89.05 50.85 89.06 55.21 88.01C68.64 84.78 79.27 76.51 85.39 64.52C86.52 62.3 88.01 58.67 88.7 56.44C89.86 52.74 89.97 51.71 89.99 44.55C90.03 35.45 89.35 32.33 85.82 25.16C77.25 7.76 57.82 -2.37 38.46 0.47ZM42.53 3.78C38.31 7.89 38.83 11.16 44.17 14.24C50.75 18.04 51.77 20.58 49.66 27.9C47.56 35.16 50.36 38.66 60.37 41.33C68.68 43.54 71.89 45.74 72.24 49.45C72.39 51.12 72.36 51.23 72.05 50.08C71.45 47.92 70.68 46.75 69.04 45.56C67.08 44.14 65.63 43.62 60.49 42.46C53.38 40.85 49.15 38.42 47.25 34.85C46.09 32.67 46.29 28.85 47.75 25.52C49.95 20.49 49.16 17.84 44.74 15.52C40.81 13.45 39.27 12.15 38.93 10.63C38.43 8.42 39.12 6.49 41.19 4.28L43.12 2.22L41.26 2.98C38.89 3.95 38.31 4.53 37.51 6.75L36.86 8.55L36.83 6.69C36.8 3.43 38.54 1.94 42.41 1.88L44.5 1.86L42.53 3.78ZM58.51 3.3C61.77 4.33 69.16 7.83 69.16 8.33C69.16 8.51 68.35 8.79 67.36 8.94C63.9 9.49 61.61 12.28 61.72 15.79C61.76 16.92 61.87 17.28 61.97 16.62C62.6 12.69 63.58 11.55 66.35 11.55C69.22 11.55 70.26 12.83 69.99 16C69.54 21.42 64.7 24.37 59.27 22.55C56.35 21.57 53.81 19.53 53.2 17.67C52.42 15.27 52.02 14.89 49.99 14.56C47.31 14.11 45.43 12.77 44.79 10.86C44.11 8.86 44.49 6.41 45.61 5.44C46.74 4.47 48.57 3.58 48.85 3.86C48.98 3.99 48.43 4.43 47.62 4.84C45.64 5.85 45.06 7.44 45.93 9.49C46.31 10.37 46.77 11.09 46.96 11.09C47.15 11.09 48.09 10.23 49.05 9.19C50.51 7.6 50.85 6.83 51.12 4.53L51.45 1.77L53.53 2.07C54.67 2.24 56.91 2.79 58.51 3.3ZM33.99 4.28C33.49 5.36 33.08 6.98 33.07 7.88C33.06 10.07 32.42 10.65 30.73 10.03C29.59 9.6 29.22 9.7 27.92 10.77C26.23 12.17 25.46 12.31 24.65 11.34C23.88 10.44 24.22 8.51 25.11 8.7C25.65 8.81 25.68 8.72 25.23 8.28C24.41 7.45 23.22 8.56 23.22 10.16C23.22 11.72 24.85 13.85 26.05 13.85C26.54 13.85 27.68 13.51 28.58 13.08C30.12 12.36 30.29 12.36 31.1 13.08C32.3 14.16 33.19 14.05 34.4 12.68C35.55 11.37 36.39 11.51 36.01 12.95C35.61 14.46 34.18 14.87 27.94 15.29C20.49 15.8 17.01 16.43 14.33 17.78C10 19.95 8.24 23.17 8.23 29C8.22 33.09 7.66 34.86 6.52 34.43C6.13 34.29 5.95 34.37 6.11 34.63C6.58 35.37 8.15 35.15 8.63 34.26C8.88 33.81 9.31 31.82 9.59 29.82C10.58 22.78 12.82 19.67 17.59 18.71L19.23 18.39L17.08 19.76C14.09 21.66 12.77 24.42 12.8 28.71C12.83 34.66 16.17 38.78 21.23 39.14C23.47 39.3 24.14 39.16 25.21 38.33C25.92 37.78 26.5 37.1 26.5 36.82C26.5 36.54 25.96 36.81 25.3 37.42C22.91 39.63 19.17 38.52 17.37 35.08C15.73 31.95 16.18 27.04 18.4 23.87C21.19 19.89 22.5 20.52 25.8 27.42C29.4 34.93 30.17 35.24 32.89 30.25L34.36 27.56L34.67 30.28C35.47 37.21 32.53 47.03 29.19 48.62C27.46 49.45 25.29 48.87 24.83 47.46C24.37 46.04 25.29 45.43 26.83 46.12C28.12 46.7 28.12 46.7 27.24 45.74C26.18 44.58 24.32 44.49 23.14 45.54C21.92 46.63 21.98 49.59 23.24 50.46C24.08 51.04 24.1 51.16 23.44 51.41C22.36 51.82 21.26 51.77 18.54 51.2C15.62 50.58 13.37 48.84 13.37 47.19C13.37 44.38 16.95 43.2 18.26 45.58C18.92 46.78 18.96 46.79 18.98 45.81C19.03 43.34 15.42 42.09 12.53 43.58C11.06 44.34 8.58 46.85 7.78 48.37C7.31 49.26 6.98 49.38 5.64 49.13C4.34 48.89 3.84 49.04 2.88 49.98L1.72 51.13L1.39 48.11C-0.37 31.96 8.91 14.95 23.99 6.65C26.3 5.38 33.76 2.39 34.8 2.32C34.85 2.32 34.49 3.2 33.99 4.28ZM72.44 11.09C72.96 11.59 73.37 12.37 73.37 12.82C73.35 13.57 73.32 13.56 72.86 12.79C72.58 12.32 71.69 11.55 70.88 11.06C69.55 10.26 69.5 10.17 70.45 10.16C71.03 10.16 71.93 10.58 72.44 11.09ZM42.21 16.29C43.49 16.93 44.97 17.9 45.48 18.46C46.86 19.96 46.7 22.61 45.11 24.53C40.35 30.29 40.21 31.66 43.85 36.79C45.62 39.29 46.38 40.83 46.55 42.27C46.77 44.18 46.67 44.36 44.26 46.71C42.87 48.06 38.51 51.31 34.56 53.94C25.56 59.92 22.19 62.67 20.61 65.32C18.49 68.88 19.31 70.65 24.63 73.94L27.2 75.54L27.2 70.89C27.2 66.62 27.32 66.04 28.56 63.82C29.7 61.81 32.25 58.78 31.58 60.24C31.47 60.49 30.99 61.52 30.53 62.52C27.73 68.6 28.78 76.08 33.23 81.81C34.17 83.02 34.79 84 34.62 84C34.44 84 32.6 82.29 30.52 80.19C28.25 77.91 25.37 75.59 23.34 74.41C19.74 72.31 18.53 70.78 18.53 68.32C18.53 64.5 22.08 60.96 33.49 53.41C41.66 48 45.02 45.14 45.52 43.21C45.86 41.88 45 40.04 42.29 36.29C39.32 32.2 39.35 28.37 42.38 24.59C45.89 20.23 45.95 19.06 42.76 17.49C40.18 16.21 37.75 14.4 37.75 13.75C37.75 13.47 38.23 13.66 38.81 14.18C39.39 14.71 40.92 15.66 42.21 16.29ZM76.33 16.17C80.4 19.32 75.85 25.62 68.51 26.97L66.68 27.3L68.4 28.7C70.43 30.35 71.52 32.24 71.46 34.02C71.42 35.25 71.4 35.23 70.96 33.7C70.23 31.16 67.9 29.14 63.18 26.94C58.63 24.82 57.65 24.16 60.61 25.2C64.7 26.63 69.89 25.37 73.66 22.01C75.94 19.97 76.46 18.29 75.26 16.86C74.5 15.96 72.72 15.97 71.96 16.87C71.49 17.43 71.49 17.83 71.93 18.79C72.43 19.87 72.41 19.94 71.76 19.41C70.71 18.55 70.87 16.79 72.08 15.96C73.49 14.99 74.89 15.05 76.33 16.17ZM37.48 16.6C39.96 17.17 41.7 18.53 41.89 20.03C41.99 20.91 41.44 22.04 39.89 24.07C38.71 25.61 37.61 27.39 37.46 28.01C36.96 29.94 37.55 32.87 39.14 36.43C41.89 42.59 40.61 46.99 35.26 49.72C33.3 50.73 32.18 50.97 29.45 50.99C26.45 51 25.94 50.88 24.99 49.88C24.4 49.26 24.27 49.01 24.7 49.32C27.36 51.28 31.49 50.7 34.69 47.92C38.91 44.26 39.71 40.62 37.54 34.96C36.26 31.62 36 28.27 36.89 26.63C37.19 26.08 38.27 24.54 39.29 23.21C42.33 19.23 40.98 17.57 33.99 16.71C30.51 16.28 30.5 16.28 33.06 16.23C34.48 16.21 36.47 16.37 37.48 16.6ZM33.71 19.28C33.01 22.21 31.17 27.54 30.62 28.29C30.08 29.01 29.7 28.64 27.09 24.8C25.48 22.44 24.16 20.16 24.16 19.75C24.16 18.81 26.94 18.13 31.08 18.06L34.02 18.01L33.71 19.28ZM79.95 22.62C79.62 23.39 78.2 25.06 76.79 26.33C73.87 28.96 73.9 29.19 77.51 31.27C79.72 32.55 83.48 32.95 85.33 32.11C86.17 31.73 86.2 31.76 85.63 32.46C83.51 35.03 77.89 34.21 74.03 30.77L71.78 28.76L73.63 27.89C75.88 26.84 79.37 23.42 79.77 21.86C79.93 21.24 80.16 20.84 80.3 20.97C80.43 21.1 80.27 21.84 79.95 22.62ZM84.62 25.52C84.63 25.72 84.22 25.67 83.72 25.41C82.64 24.84 82.29 24.81 82.29 25.28C82.29 25.48 82.76 25.84 83.34 26.09C83.98 26.37 84.45 27.03 84.54 27.77C84.82 30.16 80.9 31.42 79.01 29.55C77.8 28.36 77.81 28.32 79.48 25.85C80.25 24.71 81.11 23.08 81.4 22.22L81.93 20.67L83.27 22.91C84.01 24.15 84.62 25.32 84.62 25.52ZM17.45 22.06C16 23.64 15.13 26.5 15.09 29.77C15.05 33.32 14.44 32.25 14.36 28.49C14.29 25.39 16.23 21.24 17.74 21.24C18 21.24 17.87 21.61 17.45 22.06ZM61.58 28.21C62.69 28.27 60.3 28.98 58.78 29.04C57.76 29.08 57.41 28.77 56.79 27.23C55.64 24.4 55.84 24.29 58.42 26.31C59.73 27.33 61.16 28.18 61.58 28.21ZM54.65 29.66C55.8 32.77 56.12 32.85 60.34 31.16C61.93 30.53 63.83 30.01 64.57 30.01C66.33 30.01 68.02 31.69 68.67 34.09C69.62 37.56 68.05 40.04 66.27 37.88C65.61 37.07 65.41 37 65.41 37.57C65.41 38.59 67 40.07 68.5 40.44C71.21 41.11 74.79 37.72 74.79 34.47L74.79 33.36L76.97 34.45C78.54 35.24 79.95 35.55 81.93 35.55C84.37 35.55 84.87 35.38 86.07 34.2C86.82 33.46 87.53 33 87.63 33.17C87.88 33.55 88.67 38.15 89.06 41.43C89.35 43.83 89.34 43.84 88.27 43.36C86.57 42.6 84.72 43.53 83.85 45.57C83.21 47.08 83.19 48 83.69 52.85C84 55.9 84.19 59.53 84.09 60.93L83.93 63.47L83.1 60.24C80.4 49.7 74.67 43.64 63.67 39.67C53.49 36.01 51.54 34.5 51.63 30.32C51.66 29.01 51.95 27.31 52.27 26.55C52.94 24.96 52.89 24.9 54.65 29.66ZM49.03 39.81C50.68 42.06 50.86 44.73 49.51 46.92C49.01 47.72 46.95 49.74 44.93 51.41C40.6 54.97 38.33 57.77 36.33 61.98C33.1 68.76 34.3 77.33 39.23 82.86C42.7 86.76 49 87.75 49 84.41C49 83.42 47.37 83.19 46.94 84.12C46.79 84.44 46.73 84.28 46.79 83.77C46.92 82.69 48.72 82.28 49.73 83.1C50.81 83.99 50.53 85.69 49.12 86.79C48.06 87.61 47.43 87.75 45.59 87.53C37.58 86.61 30.85 76.96 31.82 67.8C32.5 61.39 35.5 56.81 42.5 51.44C48.31 46.99 49.65 45.29 49.32 42.78C49.19 41.81 48.52 40.18 47.83 39.15C46.24 36.79 47.2 37.32 49.03 39.81ZM88.78 45.44C88.87 45.93 88.56 46.63 88.08 47C87.31 47.59 87.3 47.64 88.03 47.39C88.7 47.16 88.85 47.38 88.85 48.56C88.85 50.88 87.84 55.97 87.46 55.54C86.94 54.96 85.85 45.91 86.2 45.02C86.61 43.97 88.56 44.28 88.78 45.44ZM63.94 50.08C68.62 51.99 70.31 53.3 70.72 55.35C71.37 58.56 68.76 62.25 65.14 63.25C63.44 63.72 62.72 63.69 60.97 63.13C58.56 62.35 58.33 62.6 60.03 64.17C61.73 65.74 65.95 66 68.57 64.68C72.83 62.54 74.99 58.14 74.71 52.16C74.55 48.65 74.58 48.56 75.42 49.31C77.7 51.34 79.48 56.12 80.18 62.08C80.63 65.96 80.17 65.13 79.04 60.07C78.52 57.7 77.57 54.7 76.92 53.39L75.76 51.01L76.09 52.85C77.05 58.13 76.02 61.94 72.83 64.94C69.77 67.83 64.93 68.76 61.44 67.13C59.48 66.22 58.53 65 58.09 62.87L57.79 61.39L59.79 62.08C63.68 63.43 66.79 62.51 68.69 59.43C70.92 55.84 69.34 53.18 63.7 51.07C60.4 49.83 57.58 47.69 56.44 45.57C56.13 44.99 56.71 45.37 57.77 46.44C59.1 47.77 60.91 48.85 63.94 50.08ZM56.17 49.21C57.21 50.35 59.5 51.95 61.68 53.06C66.81 55.69 67.59 57.61 64.31 59.57C62.52 60.65 60.82 60.71 59.42 59.75C58.12 58.85 58.09 57.64 59.34 56.52C60.16 55.79 60.45 55.75 61.26 56.25C62.65 57.1 62.9 56.53 61.53 55.65C58.35 53.6 54.71 58.81 56.04 63.5C58.28 71.36 69.42 73.17 75.26 66.62C76.06 65.72 76.85 65.12 77.01 65.27C77.17 65.43 77.31 66.86 77.31 68.45C77.31 70.75 77.03 71.82 75.95 73.78C74.4 76.58 72.88 77.54 69.99 77.54C67.53 77.54 65.77 76.46 65.97 75.08C66.09 74.24 66.4 74.09 67.97 74.14L69.83 74.2L68.74 73.34C67.4 72.27 65.51 72.22 64.06 73.22C63.19 73.82 63.02 74.28 63.18 75.64C63.29 76.56 63.46 77.62 63.57 77.99C63.73 78.52 63.02 78.74 60.32 79.02C57.26 79.33 56.71 79.27 55.54 78.45C53.71 77.16 51.88 73.25 51.1 68.94C50.22 64.1 50.23 55.4 51.11 52.16C51.49 50.76 51.81 49.12 51.81 48.5C51.81 47.89 52.18 46.99 52.63 46.5C53.41 45.66 53.47 45.65 53.92 46.43C54.18 46.88 55.2 48.13 56.17 49.21ZM12.66 50.3C13.1 50.78 14.45 51.66 15.65 52.24C17.58 53.18 18.51 53.31 23.8 53.31C30.04 53.31 29.99 53.8 23.69 54.3C19.45 54.64 15.47 53.91 13.18 52.39L11.52 51.28L10.99 53.22C10.42 55.3 10.69 60.93 11.46 62.82L11.91 63.93L11.94 62.83C11.99 60.8 13.07 58.09 14.35 56.73C16.59 54.38 20.41 55.23 21.13 58.25C21.37 59.21 21.16 59.77 20.24 60.68C18.9 61.99 18.15 62.13 16.97 61.28C16.28 60.78 16.41 60.7 17.94 60.7C19.63 60.7 19.7 60.64 19.7 59.13C19.7 57.03 18.53 56.28 16.77 57.25C13.73 58.9 12.83 65.02 14.96 69.47C16.24 72.15 17.31 73.19 20.95 75.31C23.44 76.75 32.57 84.93 31.7 84.93C31.48 84.93 29.53 83.36 27.38 81.43C25.22 79.51 21.98 77.18 20.17 76.24C14.95 73.54 11.38 69.36 9.16 63.37C7.64 59.24 7.93 53.12 9.83 49.16L11.16 46.39L11.51 47.91C11.7 48.75 12.22 49.82 12.66 50.3ZM4.91 52.11C5.17 52.59 5.6 54.84 5.86 57.1C6.39 61.75 7.58 65.5 9.63 69.09C10.41 70.44 10.96 71.54 10.87 71.54C10.5 71.54 7.28 66.45 5.73 63.42C4.84 61.67 3.68 58.81 3.15 57.08C2.22 54.03 2.22 53.92 3.07 54.14C3.8 54.33 3.86 54.24 3.43 53.56C2.87 52.68 3.21 51.24 3.97 51.24C4.22 51.24 4.65 51.63 4.91 52.11ZM46.3 55.52C45.46 58.97 45.67 60.7 47.59 65.77C48.63 68.53 48.71 72.13 47.8 75.13C47.54 75.99 47.72 76.25 48.84 76.63C49.58 76.89 50.44 77.49 50.74 77.97C51.27 78.8 51.2 78.81 48.86 78.26C36.16 75.27 34.31 66.78 43.88 55.47C45.45 53.61 46.81 52.16 46.9 52.24C46.98 52.33 46.71 53.8 46.3 55.52ZM66.14 77.49C66.85 78.03 68.27 78.61 69.29 78.77L71.16 79.07L70.04 79.92C66.85 82.37 59.34 85.69 55.28 86.45C53.83 86.72 53.81 86.7 53.86 84.93C53.98 80.51 47.85 78.74 45.86 82.62C45.41 83.5 45.26 83.57 45.26 82.95C45.24 80.63 49.59 78.75 52.35 79.88C53.95 80.53 55.56 82.75 55.56 84.33C55.57 85.33 55.58 85.33 58.02 84.62C62.25 83.39 69.72 79.39 67.8 79.39C66.82 79.39 64 76.51 64.03 75.53L64.06 74.54L64.46 75.52C64.68 76.05 65.44 76.94 66.14 77.49ZM19.89 102.62C18.76 103.21 17.2 104.57 16.42 105.66C15.19 107.38 15.02 108.02 15.02 110.77C15.02 113.54 15.19 114.17 16.44 115.92C18.43 118.7 20.9 119.99 24.29 120C33.19 120.02 37.6 109.84 31.17 104.12C28.8 102.01 27.57 101.54 24.43 101.54C22.75 101.54 21.3 101.88 19.89 102.62ZM30.05 103.87C31.87 105.55 32.6 107.23 32.6 109.75C32.6 112.56 31.1 115.48 28.7 117.4C26.5 119.15 22.38 119.63 19.99 118.42C15.53 116.14 15.18 109.07 19.33 105.18C21.96 102.71 22.68 102.43 25.9 102.59C28.22 102.71 29.07 102.97 30.05 103.87ZM35.41 111C35.41 118.83 35.48 119.54 36.23 119.54C36.98 119.54 37.05 118.84 37.05 111.35L37.05 103.16L38.39 103.01C41.38 102.67 43.38 103.95 43.38 106.19C43.38 107.85 41.91 109.39 40.33 109.39C39.69 109.39 39.16 109.55 39.16 109.74C39.16 109.93 40.37 111.87 41.85 114.05C43.34 116.23 44.77 118.38 45.03 118.83C45.29 119.28 45.88 119.57 46.34 119.48C47.02 119.34 46.58 118.47 43.84 114.58C41.72 111.56 40.76 109.85 41.2 109.85C41.59 109.85 42.55 109.31 43.34 108.65C45.25 107.07 45.34 104.81 43.55 103.42C42.55 102.65 41.64 102.47 38.86 102.47L35.41 102.47L35.41 111ZM48.07 111C48.07 118.29 48.17 119.54 48.77 119.54C49.37 119.54 49.47 118.29 49.47 111C49.47 103.72 49.37 102.47 48.77 102.47C48.17 102.47 48.07 103.72 48.07 111ZM52.75 111L52.75 119.54L55.16 119.54C58.51 119.54 61.05 118.69 62.39 117.12C64.54 114.61 63.49 111.35 60.16 110.21L58.79 109.74L60.21 108.89C60.99 108.42 61.77 107.52 61.92 106.9C62.66 103.99 60.57 102.47 55.82 102.47L52.75 102.47L52.75 111ZM64.94 111L64.94 119.54L70.1 119.54C72.93 119.54 75.25 119.36 75.25 119.14C75.25 118.92 73.81 118.84 72.05 118.97C67.12 119.31 66.82 119.02 66.82 113.93L66.82 109.74L69.63 109.94C71.18 110.05 72.44 109.97 72.44 109.76C72.44 109.56 71.18 109.39 69.63 109.39L66.82 109.39L66.82 106.11L66.82 102.83L70.33 103C72.27 103.1 73.85 103.02 73.85 102.82C73.85 102.63 71.84 102.47 69.39 102.47L64.94 102.47L64.94 111ZM59.21 103.65C59.94 104.15 60.25 104.84 60.25 105.92C60.25 107.96 58.49 109.39 55.97 109.39L54.16 109.39L54.16 106.47C54.16 104.86 54.3 103.4 54.47 103.23C55.06 102.66 58.17 102.93 59.21 103.65ZM59.78 110.91C61.53 111.78 62.2 113.48 61.62 115.54C60.98 117.82 59.51 118.71 56.66 118.53L54.39 118.39L54.26 114.35L54.12 110.31L56.37 110.32C57.6 110.32 59.14 110.59 59.78 110.91Z" fill="#888888" fill-opacity="1.000000" fill-rule="evenodd"/>
</svg>
